SRRun01_grf
version=1
nRows=18
nColumns=19
inDegrees=no
endheader
time	ground_force_r_vx	ground_force_r_vy	ground_force_r_vz	ground_force_r_px	ground_force_r_py	ground_force_r_pz	ground_force_r_mx	ground_force_r_my	ground_force_r_mz	ground_force_l_vx	ground_force_l_vy	ground_force_l_vz	ground_force_l_px	ground_force_l_py	ground_force_l_pz	ground_force_l_mx	ground_force_l_my	ground_force_l_mz
    144.99800000	      0.00000000	      0.00000000	      0.00000000	      0.00000000	      0.00000000	      0.00000000	      0.00000000	      0.00000000	      0.00000000	      0.00000000	      0.00000000	      0.00000000	      0.00000000	      0.00000000	      0.00000000	      0.00000000	      0.00000000	      0.00000000
    144.99900000	      0.00000000	      0.00000000	      0.00000000	      0.00000000	      0.00000000	      0.00000000	      0.00000000	      0.00000000	      0.00000000	      0.00000000	      0.00000000	      0.00000000	      0.00000000	      0.00000000	      0.00000000	      0.00000000	      0.00000000	      0.00000000
    145.00000000	      0.00000000	      0.00000000	      0.00000000	      0.00000000	      0.00000000	      0.00000000	      0.00000000	      0.00000000	      0.00000000	      0.00000000	      0.00000000	      0.00000000	      0.00000000	      0.00000000	      0.00000000	      0.00000000	      0.00000000	      0.00000000
    145.00100000	      0.00000000	      0.00000000	      0.00000000	      0.00000000	      0.00000000	      0.00000000	      0.00000000	      0.00000000	      0.00000000	      0.00000000	      0.00000000	      0.00000000	      0.00000000	      0.00000000	      0.00000000	      0.00000000	      0.00000000	      0.00000000
    145.00200000	      7.02859277	     47.20349303	     25.30726982	      0.84212201	      0.00000000	     -0.06266045	      0.00000025	     -1.68962773	      0.00000240	      0.00000000	      0.00000000	      0.00000000	      0.00000000	      0.00000000	      0.00000000	      0.00000000	      0.00000000	      0.00000000
    145.00300000	      4.37528724	     73.65415313	     25.00462297	      0.85196930	      0.00000000	     -0.06899201	      0.00000038	     -0.99316855	      0.00000402	      0.00000000	      0.00000000	      0.00000000	      0.00000000	      0.00000000	      0.00000000	      0.00000000	      0.00000000	      0.00000000
    145.00400000	     -0.32620750	     99.62831295	     22.98290022	      0.86132996	      0.00000000	     -0.07531700	      0.00000046	     -0.40708057	      0.00000546	      0.00000000	      0.00000000	      0.00000000	      0.00000000	      0.00000000	      0.00000000	      0.00000000	      0.00000000	      0.00000000
    145.00500000	     -7.62395743	    124.76205005	     18.66737572	      0.86977783	      0.00000000	     -0.08151178	      0.00000050	      0.04033981	      0.00000671	      0.00000000	      0.00000000	      0.00000000	      0.00000000	      0.00000000	      0.00000000	      0.00000000	      0.00000000	      0.00000000
    145.00600000	    -17.96264385	    148.86741849	     11.59064562	      0.87700800	      0.00000000	     -0.08748508	      0.00000050	      0.33660563	      0.00000779	      0.00000000	      0.00000000	      0.00000000	      0.00000000	      0.00000000	      0.00000000	      0.00000000	      0.00000000	      0.00000000
    145.00700000	    -31.61526595	    171.94888165	      1.45301056	      0.88285767	      0.00000000	     -0.09317889	      0.00000047	      0.48808967	      0.00000870	      0.00000000	      0.00000000	      0.00000000	      0.00000000	      0.00000000	      0.00000000	      0.00000000	      0.00000000	      0.00000000
    145.00800000	    -48.61960833	    194.19716202	    -11.82792879	      0.88730203	      0.00000000	     -0.09856145	      0.00000043	      0.52104668	      0.00000949	      0.00000000	      0.00000000	      0.00000000	      0.00000000	      0.00000000	      0.00000000	      0.00000000	      0.00000000	      0.00000000
    145.00900000	    -68.72686781	    215.96171135	    -28.08447684	      0.89042881	      0.00000000	     -0.10361697	      0.00000039	      0.48036578	      0.00001019	      0.00000000	      0.00000000	      0.00000000	      0.00000000	      0.00000000	      0.00000000	      0.00000000	      0.00000000	      0.00000000
    145.01000000	    -91.36985392	    237.70554593	    -46.88701635	      0.89239843	      0.00000000	     -0.10833579	      0.00000036	      0.42611157	      0.00001087	      0.00000000	      0.00000000	      0.00000000	      0.00000000	      0.00000000	      0.00000000	      0.00000000	      0.00000000	      0.00000000
    145.01100000	   -115.65742570	    259.94793341	    -67.55511081	      0.89339783	      0.00000000	     -0.11270710	      0.00000036	      0.42814272	      0.00001157	      0.00000000	      0.00000000	      0.00000000	      0.00000000	      0.00000000	      0.00000000	      0.00000000	      0.00000000	      0.00000000
    145.01200000	   -140.40013961	    283.20161849	    -89.19145240	      0.89359688	      0.00000000	     -0.11671477	      0.00000042	      0.55925260	      0.00001236	      0.00000000	      0.00000000	      0.00000000	      0.00000000	      0.00000000	      0.00000000	      0.00000000	      0.00000000	      0.00000000
    145.01300000	   -164.16942252	    307.91199165	   -110.73674257	      0.89311485	      0.00000000	     -0.12033595	      0.00000055	      0.88738925	      0.00001329	      0.00000000	      0.00000000	      0.00000000	      0.00000000	      0.00000000	      0.00000000	      0.00000000	      0.00000000	      0.00000000
    145.01400000	   -185.38914723	    334.40563970	   -131.04177746	      0.89200258	      0.00000000	     -0.12354239	      0.00000077	      1.46761164	      0.00001438	      0.00000000	      0.00000000	      0.00000000	      0.00000000	      0.00000000	      0.00000000	      0.00000000	      0.00000000	      0.00000000
    145.01500000	   -202.45466451	    362.85478655	   -148.95120727	      0.89024270	      0.00000000	     -0.12630402	      0.00000110	      2.33451235	      0.00001567	      0.00000000	      0.00000000	      0.00000000	      0.00000000	      0.00000000	      0.00000000	      0.00000000	      0.00000000	      0.00000000
